<svg id="f921693e-33a8-40f4-b606-3710578972cc" data-name="Layer 1" xmlns="http://www.w3.org/2000/svg" width="859.399" height="767.784" viewBox="0 0 859.399 767.784"><defs><linearGradient id="b629f179-8ab2-4411-a7df-956765958247" x1="344.921" y1="369.397" x2="505.399" y2="369.397" gradientUnits="userSpaceOnUse"><stop offset="0" stop-color="gray" stop-opacity=".25"/><stop offset=".535" stop-color="gray" stop-opacity=".12"/><stop offset="1" stop-color="gray" stop-opacity=".1"/></linearGradient></defs><path d="M601.7 76.854l-269.702 165.97s0 342.315 269.702 529.032c269.702-186.717 269.702-529.031 269.702-529.031z" transform="translate(-170.3 -66.108)" fill="#3f3d56"/><path d="M603.31 76.854l-4.61 2.838v688.926a531.016 531.016 0 004.61 3.238c269.702-186.717 269.702-529.031 269.702-529.031z" transform="translate(-170.3 -66.108)" fill="#6c63ff" opacity=".04"/><path fill="url(#b629f179-8ab2-4411-a7df-956765958247)" d="M366.106 347.068l50.843 46.606 63.028-90.924 25.422 21.185-88.45 112.109-72.028-80.502 21.185-8.474z" opacity=".7"/><path fill="#3ad29f" d="M378.106 349.868l41.243 37.806 58.428-85.924 20.622 17.185-79.05 103.109-58.428-65.302 17.185-6.874z"/><path d="M335.59 114.064a3.675 3.675 0 01-2.047-4.44 1.766 1.766 0 00.08-.408 1.843 1.843 0 00-3.31-1.221 1.766 1.766 0 00-.205.361 3.675 3.675 0 01-4.44 2.048 1.766 1.766 0 00-.408-.08 1.843 1.843 0 00-1.222 3.31 1.766 1.766 0 00.362.204 3.675 3.675 0 012.048 4.441 1.766 1.766 0 00-.08.408 1.843 1.843 0 003.31 1.221 1.766 1.766 0 00.204-.362 3.675 3.675 0 014.441-2.047 1.766 1.766 0 00.408.08 1.843 1.843 0 001.22-3.31 1.766 1.766 0 00-.36-.205zm-146 325a3.675 3.675 0 01-2.047-4.44 1.766 1.766 0 00.08-.408 1.843 1.843 0 00-3.31-1.221 1.766 1.766 0 00-.205.361 3.675 3.675 0 01-4.44 2.048 1.766 1.766 0 00-.408-.08 1.843 1.843 0 00-1.222 3.31 1.766 1.766 0 00.362.204 3.675 3.675 0 012.048 4.441 1.766 1.766 0 00-.08.408 1.843 1.843 0 003.31 1.221 1.766 1.766 0 00.204-.362 3.675 3.675 0 014.441-2.047 1.766 1.766 0 00.408.08 1.843 1.843 0 001.22-3.31 1.766 1.766 0 00-.36-.205z" transform="translate(-170.3 -66.108)" fill="#4d8af0" opacity=".5"/><circle cx="748.399" cy="254" r="6" fill="#f55f44" opacity=".5"/><circle cx="121.399" cy="683" r="6" fill="#f55f44" opacity=".5"/><circle cx="850.399" cy="485" r="6" fill="#f55f44" opacity=".5"/><path d="M874.59 143.064a3.675 3.675 0 01-2.047-4.44 1.766 1.766 0 00.08-.408 1.843 1.843 0 00-3.311-1.221 1.766 1.766 0 00-.204.361 3.675 3.675 0 01-4.44 2.048 1.766 1.766 0 00-.408-.08 1.843 1.843 0 00-1.222 3.31 1.766 1.766 0 00.362.204 3.675 3.675 0 012.048 4.441 1.766 1.766 0 00-.08.408 1.843 1.843 0 003.31 1.221 1.766 1.766 0 00.204-.362 3.675 3.675 0 014.441-2.047 1.766 1.766 0 00.408.08 1.843 1.843 0 001.22-3.31 1.766 1.766 0 00-.36-.205zm100 628a3.675 3.675 0 01-2.047-4.44 1.766 1.766 0 00.08-.408 1.843 1.843 0 00-3.311-1.221 1.766 1.766 0 00-.204.361 3.675 3.675 0 01-4.44 2.048 1.766 1.766 0 00-.408-.08 1.843 1.843 0 00-1.222 3.31 1.766 1.766 0 00.362.204 3.675 3.675 0 012.048 4.441 1.766 1.766 0 00-.08.408 1.843 1.843 0 003.31 1.221 1.766 1.766 0 00.204-.362 3.675 3.675 0 014.441-2.047 1.766 1.766 0 00.408.08 1.843 1.843 0 001.22-3.31 1.766 1.766 0 00-.36-.205zm-792-522a3.675 3.675 0 01-2.047-4.44 1.766 1.766 0 00.08-.408 1.843 1.843 0 00-3.31-1.221 1.766 1.766 0 00-.205.361 3.675 3.675 0 01-4.44 2.048 1.766 1.766 0 00-.408-.08 1.843 1.843 0 00-1.222 3.31 1.766 1.766 0 00.362.204 3.675 3.675 0 012.048 4.441 1.766 1.766 0 00-.08.408 1.843 1.843 0 003.31 1.221 1.766 1.766 0 00.204-.362 3.675 3.675 0 014.441-2.047 1.766 1.766 0 00.408.08 1.843 1.843 0 001.22-3.31 1.766 1.766 0 00-.36-.205z" transform="translate(-170.3 -66.108)" fill="#4d8af0" opacity=".5"/><circle cx="79.399" cy="284" r="6" fill="#47e6b1" opacity=".5"/><circle cx="853.399" cy="332" r="6" fill="#47e6b1" opacity=".5"/><g opacity=".5" fill="#47e6b1"><path d="M583.399 0h3v17h-3z"/><path transform="rotate(90 703.103 -43.596)" d="M753.7 66.108h3v17h-3z"/></g><g opacity=".5" fill="#47e6b1"><path d="M594.399 666h3v17h-3z"/><path transform="rotate(90 714.103 622.404)" d="M764.7 732.108h3v17h-3z"/></g><g opacity=".5" fill="#47e6b1"><path d="M26.399 702h3v17h-3z"/><path transform="rotate(90 146.103 658.404)" d="M196.7 768.108h3v17h-3z"/></g><g opacity=".5" fill="#47e6b1"><path d="M709.399 396h3v17h-3z"/><path transform="rotate(90 829.103 352.404)" d="M879.7 462.108h3v17h-3z"/></g><path fill="#47e6b1" opacity=".5" d="M795.606 123.018l6.443 5.906 9.128-13.424 3.222 2.685-12.35 16.109-9.128-10.202 2.685-1.074z"/><path transform="rotate(-2.221 -1019.158 4680.358)" fill="#6c63ff" d="M760.29 305.8h22.242v28.597H760.29z"/><path d="M681.71 405.459s-30.779-14.706-30.286-2.006 31.025 21.056 31.025 21.056z" transform="translate(-170.3 -66.108)" fill="#ffb9b9"/><path d="M698.597 512.92s-14.521 35.54-19.887 61.188-13.536 60.942-3.025 85.973 40.391 98.6 40.7 106.537-2.56 15.999 3.79 15.753 40.907-11.126 42.31-15.95-11.79-17.033-11.79-17.033l-32.578-102.082 33.99-66.505 24.516 99.215 4.802 123.828s23.567-7.273 26.988-1.046c0 0 10.56-14.719 11.9-21.13s-4.986-128.592-4.986-128.592 21.632-139.163 4.17-138.485-85.864-41.189-120.9-1.672z" transform="translate(-170.3 -66.108)" fill="#6c63ff"/><path d="M719.929 776.02s-16.109 35.604-17.635 37.253-12.023 17.955-4.085 17.647 26.68-8.984 40.476-22.238 31.984-36.22 30.335-37.745-12.947-5.858-12.947-5.858zm64.363 19.764s-.972 15.937-3.9 22.41-2.56 15.998 5.378 15.69 28.453-4.283 28.453-4.283 1.218-9.586-.431-11.112-8.677-18.743-5.686-23.629-23.814.924-23.814.924z" transform="translate(-170.3 -66.108)" fill="#575a89"/><path d="M796.036 278.6s16.922 26.373 23.518 32.477-11.962 19.543-11.962 19.543l-33.215 4.468s.418-30.225-1.293-33.338 22.952-23.15 22.952-23.15z" transform="translate(-170.3 -66.108)" fill="#ffb9b9"/><path d="M767.165 313.109s6.843 12.454 13.193 12.207 39.196-14.239 40.599-19.063 10.88 34.556 10.88 34.556L751.465 482.25l-19.605-13.549 9.5-83.045 7.801-44.82z" transform="translate(-170.3 -66.108)" fill="#6c63ff"/><path d="M823.921 439.692c-3.206 6.707-5.208 13.7-4.93 20.86.012.318.024.635.053.952.76 14.694 6.173 31.687 8.115 44.045 1.409 8.865 1.008 15.335-4.18 16.856-12.577 3.668 1.834 6.289-46.826 22.485s-57.151 2.216-57.275-.959 6.892-27.296 5.242-28.822-23.074 19.974-29.547 17.045-.739-19.05-.739-19.05 14.583-33.954 14.275-41.892 22.09-45.375 22.09-45.375l15.233-99.166s5.858-12.947 13.734-14.842 14.41 2.62 14.41 2.62l-13.179 29.13-13.905 51.418 2.326 18.989s16.17-34.016 26.79-47.147 33.264-44.218 33.264-44.218 5.287-17.838 1.296-23.168c-3.992-5.346 16.647-6.147 25.446 15.771 4.664 11.616 12.236 28.94 16.98 45.068 4.226 14.289 6.223 27.646 2.035 35.281-6.4 11.664-22.5 26.995-30.708 44.12z" transform="translate(-170.3 -66.108)" fill="#575a89"/><path d="M854.63 395.573c-6.401 11.664-22.5 26.995-30.709 44.12-2.143-7.724-4.759-15.716-4.759-15.716s-10.03-53.668 19.64-67.538a19.858 19.858 0 0113.791 3.853c4.227 14.289 6.224 27.646 2.036 35.281z" transform="translate(-170.3 -66.108)" opacity=".1"/><path d="M736.843 392.191l-25.154 7.335-34.926 1.355-3.593 30.348 57.398 4.134s14.336-40.305 6.275-43.172z" transform="translate(-170.3 -66.108)" fill="#575a89"/><path d="M777.861 494.23s-33.652 5.584-25.971 15.71 37.492-.52 37.492-.52z" transform="translate(-170.3 -66.108)" fill="#ffb9b9"/><path d="M819.044 461.504c.76 14.694 6.173 31.687 8.115 44.045-10.72 10.146-20.915 19.095-24.756 19.244-7.938.308-20.7-.787-25.401.985s-7.458-28.33-7.458-28.33 2.805-9.648 15.321-14.903c8.448-3.555 24.641-13.198 34.179-21.04z" transform="translate(-170.3 -66.108)" opacity=".1"/><path d="M838.433 346.913s26.865-4.221 25.414 40.353 2.832 73.027-7.973 81.396-45.903 46.298-53.84 46.606-20.7-.788-25.401.985-7.459-28.33-7.459-28.33 2.806-9.648 15.322-14.903 42.001-23.888 41.755-30.238-7.458-28.33-7.458-28.33-10.03-53.669 19.64-67.539z" transform="translate(-170.3 -66.108)" fill="#575a89"/><circle cx="602.045" cy="216.591" r="34.952" fill="#ffb9b9"/><path d="M748.811 232.602a6.749 6.749 0 01-2.938 1.475 2.097 2.097 0 01-2.43-1.683c-.8 1.658-1.703 3.426-3.335 4.277s-4.158.137-4.393-1.69a7.706 7.706 0 01-1.774 3.745c-1.013.966-2.85 1.21-3.734.125.715 3.907.274 7.926.498 11.892s1.282 8.17 4.279 10.778c4.37 3.803 10.94 2.865 16.689 2.144a5.066 5.066 0 012.615.143c2.153.917 2.055 3.913 2.084 6.253a17.373 17.373 0 0015.212 16.497 8.709 8.709 0 006.473-1.58c1.632-1.383 2.465-3.638 4.336-4.677 3.042-1.69 6.731.775 8.955 3.452s4.416 5.969 7.862 6.459c4.557.648 8.028-3.996 9.73-8.272a48.223 48.223 0 00-.958-37.47c-9.515-20.741-42.018-24.022-59.17-11.868z" transform="translate(-170.3 -66.108)" fill="#2f2e41"/></svg>