<svg id="Layer_1" data-name="Layer 1" xmlns="http://www.w3.org/2000/svg" viewBox="0 0 162.16 162.16"><defs><style>.cls-1{fill:none;stroke:#005e9e;stroke-miterlimit:3.86;stroke-width:1.42px;}.cls-2,.cls-6{fill:#005e9e;}.cls-3,.cls-4{fill:#fff;}.cls-3,.cls-6,.cls-7{fill-rule:evenodd;}.cls-5,.cls-7{fill:#0095da;}.cls-12{fill:#fff;}</style></defs><title>logo1</title><circle class="cls-12" cx="81.08" cy="81.08" r="80.37"/><circle class="cls-2" cx="81.08" cy="81.08" r="77.12"/><path class="cls-3" d="M17.42,100.43a5.93,5.93,0,0,1-2.74.08,2.5,2.5,0,0,1-1.77-1.77l-.75-.26a2.38,2.38,0,0,1,.16.42,1.16,1.16,0,0,1-.13.83.94.94,0,0,1-.66.5q-1.3.28-1.66-1.4a2.7,2.7,0,0,1,0-1.39l.69.12a1.85,1.85,0,0,0,0,1,.83.83,0,0,0,.2.4.42.42,0,0,0,.41.16q.47-.1.35-.69a1.27,1.27,0,0,0-.18-.44l.21-.35,1.22.4a2.7,2.7,0,0,1,1-2.83,9.48,9.48,0,0,1,3.51-1.28,9.13,9.13,0,0,1,3.82-.24,2.79,2.79,0,0,1,2,2.38,2.67,2.67,0,0,1-.69,2.76,5,5,0,0,1-2.22.93l-.41-1.92a4.22,4.22,0,0,0,1.33-.45,1,1,0,0,0,.5-1.14,1,1,0,0,0-1-.78,12.72,12.72,0,0,0-3,.39,9,9,0,0,0-2.82.92.94.94,0,0,0-.46,1.06q.19.89,1.46.86A8.58,8.58,0,0,0,17,98.51Z" transform="translate(-3.33 -2.2)"/><path class="cls-3" d="M19,105.75l4-2.3v0l-4.62.51Zm-2.75,3.87-.63-1.94,1.9-1.09-.8-2.46-2.18.24-.63-1.94,10.43-.68L25.1,104Z" transform="translate(-3.33 -2.2)"/><polygon class="cls-3" points="16.31 114.81 15.37 112.79 20.78 107.62 20.77 107.59 14.34 110.59 13.58 108.96 22.76 104.68 23.72 106.73 18.43 111.81 18.45 111.83 24.73 108.9 25.49 110.53 16.31 114.81"/><polygon class="cls-3" points="21.08 122.72 19.91 120.85 22.38 116.95 21.02 116.94 18.47 118.54 17.43 116.88 26.02 111.51 27.06 113.17 23.62 115.32 23.63 115.34 28.39 115.3 29.52 117.1 24.43 117.16 21.08 122.72"/><rect class="cls-4" x="24.61" y="122.45" width="10.13" height="1.96" transform="translate(-70.23 38.83) rotate(-36.01)"/><path class="cls-3" d="M35.69,127.33a1.22,1.22,0,0,0,.13-2l-.62-.69-2.17,2,.55.61A1.32,1.32,0,0,0,35.69,127.33Zm-3.8,6.57-1.42-1.58a2.07,2.07,0,0,1,.63-.89l1.41-1.34q.92-.88.17-1.71l-.7-.78-3.18,2.87L27.48,129,35,122.23l2.42,2.69a2.35,2.35,0,0,1-.21,3.67q-1.59,1.43-2.94.47l0,0a1.52,1.52,0,0,1,.26,1.49A6.75,6.75,0,0,1,33,132.31q-.55.51-.7.69a1.09,1.09,0,0,0-.36.85Z" transform="translate(-3.33 -2.2)"/><rect class="cls-4" x="32.08" y="130.99" width="10.13" height="1.96" transform="translate(-86.93 64.82) rotate(-46)"/><polygon class="cls-3" points="40.46 141.77 38.7 140.44 39.6 135.92 38.33 136.4 36.52 138.8 34.96 137.63 41.05 129.53 42.62 130.72 40.18 133.96 40.2 133.97 44.62 132.22 46.32 133.5 41.59 135.38 40.46 141.77"/><path class="cls-3" d="M50.26,143.43,51.8,139h0l-3.15,3.42Zm.46,4.73L49,147.11l.72-2.07-2.22-1.33L46,145.32l-1.75-1.05,7.42-7.36,2.08,1.25Z" transform="translate(-3.33 -2.2)"/><path class="cls-3" d="M59.07,144a1.22,1.22,0,0,0-.67-1.84l-.85-.38-1.19,2.67.75.33A1.32,1.32,0,0,0,59.07,144Zm-.8,7.55-1.94-.86a2.07,2.07,0,0,1,.21-1.07l.74-1.8q.48-1.18-.54-1.64l-1-.43L54,149.64l-1.79-.8,4.12-9.25,3.31,1.47A2.35,2.35,0,0,1,61,144.5q-.87,2-2.5,1.62v0a1.52,1.52,0,0,1,.84,1.26,6.79,6.79,0,0,1-.67,2.2c-.2.46-.32.77-.36.91a1.09,1.09,0,0,0,0,.92Z" transform="translate(-3.33 -2.2)"/><path class="cls-3" d="M65.13,149.71l.43-4.63h0l-2.23,4.08Zm1.59,4.48-2-.6.2-2.18-2.47-.76-1.06,1.92-2-.6L64.91,143l2.32.71Z" transform="translate(-3.33 -2.2)"/><polygon class="cls-3" points="72.04 145.03 69.96 144.63 68.34 152.93 66.42 152.56 68.03 144.25 65.95 143.85 66.27 142.21 72.36 143.39 72.04 145.03"/><polygon class="cls-3" points="77.6 153.99 72.05 153.51 72.93 143.42 78.35 143.89 78.2 145.56 74.74 145.26 74.53 147.63 77.79 147.91 77.64 149.58 74.39 149.3 74.15 152.01 77.75 152.33 77.6 153.99"/><polygon class="cls-3" points="86.25 153.92 84.05 153.96 81.97 149.84 81.27 151 81.32 154.01 79.36 154.04 79.19 143.92 81.15 143.88 81.22 147.94 81.25 147.94 83.65 143.84 85.78 143.8 83.21 148.19 86.25 153.92"/><path class="cls-3" d="M92.44,155.8l-2,.17-.88-10,2-.17Zm-.92-10.49-1.87.16,0-.52c0-.13,0-.25,0-.37a.42.42,0,0,0,0-.15l1.87-.16Z" transform="translate(-3.33 -2.2)"/><polygon class="cls-3" points="97.67 152.16 95.48 152.59 91.78 146.08 91.75 146.09 93.1 153.05 91.34 153.39 89.4 143.45 91.62 143.02 95.27 149.38 95.3 149.37 93.98 142.56 95.74 142.22 97.67 152.16"/><path class="cls-3" d="M111,148.13a3.12,3.12,0,0,1-.07,2.72,3.24,3.24,0,0,1-1.82,1.32,3.34,3.34,0,0,1-2.22.12,3.13,3.13,0,0,1-1.75-2.14l-2.26-6.56,1.86-.64,2.26,6.56q.56,1.64,1.63,1.27a1,1,0,0,0,.71-.77,2.66,2.66,0,0,0-.2-1.24l-2.26-6.56,1.85-.64Zm-5.72-6-1.44.5-.45-1.31,1.44-.5Zm2.23-.77-1.44.5-.45-1.32,1.44-.5Z" transform="translate(-3.33 -2.2)"/><polygon class="cls-3" points="116.48 145.01 114.47 145.99 109.2 140.67 109.18 140.68 112.29 147.06 110.67 147.84 106.23 138.74 108.27 137.75 113.44 142.95 113.46 142.93 110.42 136.7 112.04 135.91 116.48 145.01"/><path class="cls-3" d="M123.37,145l-1.66,1-5.33-8.53,1.66-1ZM117.79,136l-1.59,1-.28-.45c-.07-.11-.13-.22-.18-.32s-.08-.12-.09-.12l1.59-1Z" transform="translate(-3.33 -2.2)"/><polygon class="cls-3" points="120.79 129.88 124.94 139.39 122.9 140.87 115.14 133.99 116.84 132.75 122.35 138.01 122.39 137.98 119.15 131.07 120.79 129.88"/><polygon class="cls-3" points="132.01 133.34 127.87 137.07 121.09 129.54 125.13 125.91 126.25 127.15 123.67 129.47 125.27 131.25 127.69 129.06 128.81 130.3 126.39 132.49 128.21 134.52 130.89 132.1 132.01 133.34"/><path class="cls-3" d="M134.11,126.34a1.22,1.22,0,0,0-2,.07l-.62.69,2.17,2,.55-.61A1.32,1.32,0,0,0,134.11,126.34Zm6.93,3.09L139.62,131a2.07,2.07,0,0,1-1-.53l-1.48-1.26q-1-.82-1.72,0l-.7.78,3.18,2.87-1.31,1.46-7.53-6.78,2.42-2.69a2.35,2.35,0,0,1,3.67-.18q1.59,1.43.77,2.88l0,0a1.52,1.52,0,0,1,1.46-.41,6.78,6.78,0,0,1,1.89,1.32q.57.49.75.63a1.09,1.09,0,0,0,.89.27Z" transform="translate(-3.33 -2.2)"/><path class="cls-3" d="M143.31,121.37q2.51,1.83.53,4.56-1.82,2.5-4.21.77l-.33-.24,1.15-1.59.24.17a1.91,1.91,0,0,0,1.07.46,1.22,1.22,0,0,0,1-.59,1.09,1.09,0,0,0,.22-.88,1.29,1.29,0,0,0-.54-.8,1.38,1.38,0,0,0-1.27-.25,5.58,5.58,0,0,0-1.15.64,4.71,4.71,0,0,1-2,.89,2.76,2.76,0,0,1-1.93-.63,2.94,2.94,0,0,1-1.34-1.95,3.1,3.1,0,0,1,.7-2.24,3.34,3.34,0,0,1,1.78-1.38,2.59,2.59,0,0,1,2.2.55l.23.17-1.1,1.52q-1.22-.88-1.84,0a.94.94,0,0,0,0,1.29,1.74,1.74,0,0,0,.32.3,1.34,1.34,0,0,0,.86.31,2.18,2.18,0,0,0,.84-.31l1.44-.82a2.73,2.73,0,0,1,2.52-.36A4.08,4.08,0,0,1,143.31,121.37Z" transform="translate(-3.33 -2.2)"/><path class="cls-3" d="M147.5,120l-1,1.68-8.62-5.18,1-1.68Zm-9-5.42-1,1.61-.45-.27-.31-.2-.14-.07,1-1.61Z" transform="translate(-3.33 -2.2)"/><polygon class="cls-3" points="140.09 107.17 139.16 109.08 146.76 112.78 145.9 114.55 138.3 110.84 137.37 112.75 135.86 112.01 138.58 106.43 140.09 107.17"/><polygon class="cls-3" points="150.3 104.38 148.3 109.58 138.84 105.95 140.79 100.88 142.35 101.48 141.11 104.72 143.33 105.57 144.5 102.52 146.07 103.12 144.9 106.17 147.44 107.15 148.73 103.78 150.3 104.38"/><path class="cls-3" d="M152.91,98.25q3,.8,2.13,4.07-.8,3-3.65,2.22l-.4-.11.51-1.9.29.08a1.9,1.9,0,0,0,1.16,0,1.22,1.22,0,0,0,.68-.89,1.1,1.1,0,0,0-.11-.9,1.29,1.29,0,0,0-.79-.55,1.39,1.39,0,0,0-1.28.22,5.62,5.62,0,0,0-.84,1,4.71,4.71,0,0,1-1.59,1.56,2.74,2.74,0,0,1-2,.11,2.93,2.93,0,0,1-1.95-1.34,3.1,3.1,0,0,1-.15-2.34A3.33,3.33,0,0,1,146,97.61a2.58,2.58,0,0,1,2.25-.27l.27.07-.49,1.82q-1.45-.39-1.73.64a.94.94,0,0,0,.44,1.22,1.78,1.78,0,0,0,.41.17,1.35,1.35,0,0,0,.92,0,2.18,2.18,0,0,0,.67-.6l1-1.28a2.73,2.73,0,0,1,2.23-1.24A4.1,4.1,0,0,1,152.91,98.25Z" transform="translate(-3.33 -2.2)"/><path class="cls-3" d="M156.33,95.64,156,97.56l-9.87-1.92.38-1.93Zm-10.33-2-.36,1.84-.52-.1-.36-.08-.16,0,.36-1.84Z" transform="translate(-3.33 -2.2)"/><circle class="cls-4" cx="81.08" cy="81.08" r="57.42"/><polygon class="cls-5" points="70.63 50.65 80.85 40.43 91.07 50.65 87.94 53.78 80.85 46.69 73.75 53.78 70.63 50.65"/><path class="cls-6" d="M54.14,113.23,84.27,83.1l30,30-3.13,3.13L84.27,89.36l-27,27ZM34,93,70.82,56.19,84.27,69.64,97.73,56.19,134.5,93l-3.13,3.13L97.73,62.44,87.4,72.77,121,106.41l-3.13,3.13L84.27,75.9,50.54,109.63l-3.13-3.13L81.14,72.77,70.82,62.44,37.08,96.17Z" transform="translate(-3.33 -2.2)"/><polygon class="cls-7" points="37.35 97.58 80.94 53.99 124.44 97.48 121.31 100.61 80.94 60.25 40.48 100.71 37.35 97.58"/><path class="cls-6" d="M79.78,117.3H76.16a2.9,2.9,0,0,1,.36-1.44,4.78,4.78,0,0,1,.94-1.14l.48-.45a2,2,0,0,0,.49-.61,1.79,1.79,0,0,0,.12-.73q0-.73-.58-.73a.55.55,0,0,0-.55.34,2,2,0,0,0-.12.81H76.16v-.22q0-1.7,1.83-1.7t1.76,1.6a2.18,2.18,0,0,1-.24,1,3.21,3.21,0,0,1-.67.82l-.66.62a2,2,0,0,0-.61.86h2.22Z" transform="translate(-3.33 -2.2)"/><path class="cls-6" d="M82.63,114.66V114a5.07,5.07,0,0,0-.13-1.46.51.51,0,0,0-.52-.36.52.52,0,0,0-.52.42,6.35,6.35,0,0,0-.12,1.55v.64a5.07,5.07,0,0,0,.13,1.46.54.54,0,0,0,1-.06A6.08,6.08,0,0,0,82.63,114.66Zm1.2-.38a6.21,6.21,0,0,1-.27,2.18,1.54,1.54,0,0,1-1.58,1,1.56,1.56,0,0,1-1.45-.65,4.46,4.46,0,0,1-.39-2.21,6.28,6.28,0,0,1,.27-2.18,1.54,1.54,0,0,1,1.58-1,1.59,1.59,0,0,1,1.46.65A4.54,4.54,0,0,1,83.83,114.28Z" transform="translate(-3.33 -2.2)"/><path class="cls-6" d="M86.62,114.66V114a5,5,0,0,0-.13-1.46.5.5,0,0,0-.51-.36.52.52,0,0,0-.52.42,6.35,6.35,0,0,0-.12,1.55v.64a5.07,5.07,0,0,0,.13,1.46.54.54,0,0,0,1-.06A6,6,0,0,0,86.62,114.66Zm1.2-.38a6.2,6.2,0,0,1-.27,2.18,1.54,1.54,0,0,1-1.58,1,1.57,1.57,0,0,1-1.45-.65,4.46,4.46,0,0,1-.39-2.21,6.28,6.28,0,0,1,.27-2.18,1.54,1.54,0,0,1,1.58-1,1.59,1.59,0,0,1,1.46.65A4.54,4.54,0,0,1,87.82,114.28Z" transform="translate(-3.33 -2.2)"/><path class="cls-6" d="M91.77,112.45A9.8,9.8,0,0,0,90.26,116q-.14.65-.22,1.27H88.79a10.48,10.48,0,0,1,1.09-3.54,8.59,8.59,0,0,1,.75-1.2H88.15v-1h3.62Z" transform="translate(-3.33 -2.2)"/></svg>