<svg id="Layer_1" data-name="Layer 1" xmlns="http://www.w3.org/2000/svg" viewBox="0 0 162.16 162.16"><defs><style>.cls-6{fill:#005e9e}.cls-3,.cls-4{fill:#fff}.cls-3,.cls-6{fill-rule:evenodd}</style></defs><circle cx="81.08" cy="81.08" r="80.37" fill="#fff"/><circle cx="81.08" cy="81.08" r="77.12" fill="#005e9e"/><path class="cls-3" d="M17.42 100.43a5.93 5.93 0 01-2.74.08 2.5 2.5 0 01-1.77-1.77l-.75-.26a2.38 2.38 0 01.16.42 1.16 1.16 0 01-.13.83.94.94 0 01-.66.5q-1.3.28-1.66-1.4a2.7 2.7 0 010-1.39l.69.12a1.85 1.85 0 000 1 .83.83 0 00.2.4.42.42 0 00.41.16q.47-.1.35-.69a1.27 1.27 0 00-.18-.44l.21-.35 1.22.4a2.7 2.7 0 011-2.83 9.48 9.48 0 013.51-1.28 9.13 9.13 0 013.82-.24 2.79 2.79 0 012 2.38 2.67 2.67 0 01-.69 2.76 5 5 0 01-2.22.93l-.41-1.92a4.22 4.22 0 001.33-.45 1 1 0 00.5-1.14 1 1 0 00-1-.78 12.72 12.72 0 00-3 .39 9 9 0 00-2.82.92.94.94 0 00-.46 1.06q.19.89 1.46.86a8.58 8.58 0 001.21-.19zm1.58 5.32l4-2.3-4.62.51zm-2.75 3.87l-.63-1.94 1.9-1.09-.8-2.46-2.18.24-.63-1.94 10.43-.68.76 2.25z" transform="translate(-3.33 -2.2)"/><path class="cls-3" d="M16.31 114.81l-.94-2.02 5.41-5.17-.01-.03-6.43 3-.76-1.63 9.18-4.28.96 2.05-5.29 5.08.02.02 6.28-2.93.76 1.63-9.18 4.28zm4.77 7.91l-1.17-1.87 2.47-3.9-1.36-.01-2.55 1.6-1.04-1.66 8.59-5.37 1.04 1.66-3.44 2.15.01.02 4.76-.04 1.13 1.8-5.09.06-3.35 5.56z"/><path class="cls-4" transform="rotate(-36.01 24.62 127.456)" d="M24.61 122.45h10.13v1.96H24.61z"/><path class="cls-3" d="M35.69 127.33a1.22 1.22 0 00.13-2l-.62-.69-2.17 2 .55.61a1.32 1.32 0 002.11.08zm-3.8 6.57l-1.42-1.58a2.07 2.07 0 01.63-.89l1.41-1.34q.92-.88.17-1.71l-.7-.78-3.18 2.87-1.32-1.47 7.52-6.77 2.42 2.69a2.35 2.35 0 01-.21 3.67q-1.59 1.43-2.94.47a1.52 1.52 0 01.26 1.49 6.75 6.75 0 01-1.53 1.76q-.55.51-.7.69a1.09 1.09 0 00-.36.85z" transform="translate(-3.33 -2.2)"/><path class="cls-4" transform="rotate(-46 32.888 134.807)" d="M32.08 130.99h10.13v1.96H32.08z"/><path class="cls-3" d="M40.46 141.77l-1.76-1.33.9-4.52-1.27.48-1.81 2.4-1.56-1.17 6.09-8.1 1.57 1.19-2.44 3.24.02.01 4.42-1.75 1.7 1.28-4.73 1.88-1.13 6.39z"/><path class="cls-3" d="M50.26 143.43L51.8 139l-3.15 3.42zm.46 4.73L49 147.11l.72-2.07-2.22-1.33-1.5 1.61-1.75-1.05 7.42-7.36 2.08 1.25zm8.35-4.16a1.22 1.22 0 00-.67-1.84l-.85-.38-1.19 2.67.75.33a1.32 1.32 0 001.96-.78zm-.8 7.55l-1.94-.86a2.07 2.07 0 01.21-1.07l.74-1.8q.48-1.18-.54-1.64l-1-.43-1.74 3.89-1.79-.8 4.12-9.25 3.31 1.47A2.35 2.35 0 0161 144.5q-.87 2-2.5 1.62a1.52 1.52 0 01.84 1.26 6.79 6.79 0 01-.67 2.2c-.2.46-.32.77-.36.91a1.09 1.09 0 000 .92zm6.86-1.84l.43-4.63-2.23 4.08zm1.59 4.48l-2-.6.2-2.18-2.47-.76-1.06 1.92-2-.6 5.52-8.97 2.32.71z" transform="translate(-3.33 -2.2)"/><path class="cls-3" d="M72.04 145.03l-2.08-.4-1.62 8.3-1.92-.37 1.61-8.31-2.08-.4.32-1.64 6.09 1.18-.32 1.64zm5.56 8.96l-5.55-.48.88-10.09 5.42.47-.15 1.67-3.46-.3-.21 2.37 3.26.28-.15 1.67-3.25-.28-.24 2.71 3.6.32-.15 1.66zm8.65-.07l-2.2.04-2.08-4.12-.7 1.16.05 3.01-1.96.03-.17-10.12 1.96-.04.07 4.06h.03l2.4-4.1 2.13-.04-2.57 4.39 3.04 5.73z"/><path class="cls-3" d="M92.44 155.8l-2 .17-.88-10 2-.17zm-.92-10.49l-1.87.16v-.89a.42.42 0 000-.15l1.87-.16z" transform="translate(-3.33 -2.2)"/><path class="cls-3" d="M97.67 152.16l-2.19.43-3.7-6.51-.03.01 1.35 6.96-1.76.34-1.94-9.94 2.22-.43 3.65 6.36.03-.01-1.32-6.81 1.76-.34 1.93 9.94z"/><path class="cls-3" d="M111 148.13a3.12 3.12 0 01-.07 2.72 3.24 3.24 0 01-1.82 1.32 3.34 3.34 0 01-2.22.12 3.13 3.13 0 01-1.75-2.14l-2.26-6.56 1.86-.64 2.26 6.56q.56 1.64 1.63 1.27a1 1 0 00.71-.77 2.66 2.66 0 00-.2-1.24l-2.26-6.56 1.85-.64zm-5.72-6l-1.44.5-.45-1.31 1.44-.5zm2.23-.77l-1.44.5-.45-1.32 1.44-.5z" transform="translate(-3.33 -2.2)"/><path class="cls-3" d="M116.48 145.01l-2.01.98-5.27-5.32-.02.01 3.11 6.38-1.62.78-4.44-9.1 2.04-.99 5.17 5.2.02-.02-3.04-6.23 1.62-.79 4.44 9.1z"/><path class="cls-3" d="M123.37 145l-1.66 1-5.33-8.53 1.66-1zm-5.58-9l-1.59 1-.28-.45c-.07-.11-.13-.22-.18-.32s-.08-.12-.09-.12l1.59-1z" transform="translate(-3.33 -2.2)"/><path class="cls-3" d="M120.79 129.88l4.15 9.51-2.04 1.48-7.76-6.88 1.7-1.24 5.51 5.26.04-.03-3.24-6.91 1.64-1.19zm11.22 3.46l-4.14 3.73-6.78-7.53 4.04-3.63 1.12 1.24-2.58 2.32 1.6 1.78 2.42-2.19 1.12 1.24-2.42 2.19 1.82 2.03 2.68-2.42 1.12 1.24z"/><path class="cls-3" d="M134.11 126.34a1.22 1.22 0 00-2 .07l-.62.69 2.17 2 .55-.61a1.32 1.32 0 00-.1-2.15zm6.93 3.09l-1.42 1.57a2.07 2.07 0 01-1-.53l-1.48-1.26q-1-.82-1.72 0l-.7.78 3.18 2.87-1.31 1.46-7.53-6.78 2.42-2.69a2.35 2.35 0 013.67-.18q1.59 1.43.77 2.88a1.52 1.52 0 011.46-.41 6.78 6.78 0 011.89 1.32q.57.49.75.63a1.09 1.09 0 00.89.27zm2.27-8.06q2.51 1.83.53 4.56-1.82 2.5-4.21.77l-.33-.24 1.15-1.59.24.17a1.91 1.91 0 001.07.46 1.22 1.22 0 001-.59 1.09 1.09 0 00.22-.88 1.29 1.29 0 00-.54-.8 1.38 1.38 0 00-1.27-.25 5.58 5.58 0 00-1.15.64 4.71 4.71 0 01-2 .89 2.76 2.76 0 01-1.93-.63 2.94 2.94 0 01-1.34-1.95 3.1 3.1 0 01.7-2.24 3.34 3.34 0 011.78-1.38 2.59 2.59 0 012.2.55l.23.17-1.1 1.52q-1.22-.88-1.84 0a.94.94 0 000 1.29 1.74 1.74 0 00.32.3 1.34 1.34 0 00.86.31 2.18 2.18 0 00.84-.31l1.44-.82a2.73 2.73 0 012.52-.36 4.08 4.08 0 01.61.41zm4.19-1.37l-1 1.68-8.62-5.18 1-1.68zm-9-5.42l-1 1.61-.45-.27-.31-.2-.14-.07 1-1.61z" transform="translate(-3.33 -2.2)"/><path class="cls-3" d="M140.09 107.17l-.93 1.91 7.6 3.7-.86 1.77-7.6-3.71-.93 1.91-1.51-.74 2.72-5.58 1.51.74zm10.21-2.79l-2 5.2-9.46-3.63 1.95-5.07 1.56.6-1.24 3.24 2.22.85 1.17-3.05 1.57.6-1.17 3.05 2.54.98 1.29-3.37 1.57.6z"/><path class="cls-3" d="M152.91 98.25q3 .8 2.13 4.07-.8 3-3.65 2.22l-.4-.11.51-1.9.29.08a1.9 1.9 0 001.16 0 1.22 1.22 0 00.68-.89 1.1 1.1 0 00-.11-.9 1.29 1.29 0 00-.79-.55 1.39 1.39 0 00-1.28.22 5.62 5.62 0 00-.84 1 4.71 4.71 0 01-1.59 1.56 2.74 2.74 0 01-2 .11 2.93 2.93 0 01-1.95-1.34 3.1 3.1 0 01-.15-2.34 3.33 3.33 0 011.08-1.87 2.58 2.58 0 012.25-.27l.27.07-.49 1.82q-1.45-.39-1.73.64a.94.94 0 00.44 1.22 1.78 1.78 0 00.41.17 1.35 1.35 0 00.92 0 2.18 2.18 0 00.67-.6l1-1.28a2.73 2.73 0 012.23-1.24 4.1 4.1 0 01.94.11zm3.42-2.61l-.33 1.92-9.87-1.92.38-1.93zm-10.33-2l-.36 1.84-.52-.1-.36-.08h-.16l.36-1.84z" transform="translate(-3.33 -2.2)"/><circle class="cls-4" cx="81.08" cy="81.08" r="57.42"/><path fill="#0095da" d="M70.63 50.65l10.22-10.22 10.22 10.22-3.13 3.13-7.09-7.09-7.1 7.09-3.12-3.13z"/><path class="cls-6" d="M54.14 113.23L84.27 83.1l30 30-3.13 3.13-26.87-26.87-27 27zM34 93l36.82-36.81 13.45 13.45 13.46-13.45L134.5 93l-3.13 3.13-33.64-33.69L87.4 72.77l33.6 33.64-3.13 3.13-33.6-33.64-33.73 33.73-3.13-3.13 33.73-33.73-10.32-10.33-33.74 33.73z" transform="translate(-3.33 -2.2)"/><path fill="#0095da" fill-rule="evenodd" d="M37.35 97.58l43.59-43.59 43.5 43.49-3.13 3.13-40.37-40.36-40.46 40.46-3.13-3.13z"/><path class="cls-6" d="M79.78 117.3h-3.62a2.9 2.9 0 01.36-1.44 4.78 4.78 0 01.94-1.14l.48-.45a2 2 0 00.49-.61 1.79 1.79 0 00.12-.73q0-.73-.58-.73a.55.55 0 00-.55.34 2 2 0 00-.12.81h-1.14v-.22q0-1.7 1.83-1.7t1.76 1.6a2.18 2.18 0 01-.24 1 3.21 3.21 0 01-.67.82l-.66.62a2 2 0 00-.61.86h2.22zm2.85-2.64V114a5.07 5.07 0 00-.13-1.46.51.51 0 00-.52-.36.52.52 0 00-.52.42 6.35 6.35 0 00-.12 1.55v.64a5.07 5.07 0 00.13 1.46.54.54 0 001-.06 6.08 6.08 0 00.16-1.53zm1.2-.38a6.21 6.21 0 01-.27 2.18 1.54 1.54 0 01-1.58 1 1.56 1.56 0 01-1.45-.65 4.46 4.46 0 01-.39-2.21 6.28 6.28 0 01.27-2.18 1.54 1.54 0 011.58-1 1.59 1.59 0 011.46.65 4.54 4.54 0 01.38 2.21zm2.79.38V114a5 5 0 00-.13-1.46.5.5 0 00-.51-.36.52.52 0 00-.52.42 6.35 6.35 0 00-.12 1.55v.64a5.07 5.07 0 00.13 1.46.54.54 0 001-.06 6 6 0 00.15-1.53zm1.2-.38a6.2 6.2 0 01-.27 2.18 1.54 1.54 0 01-1.58 1 1.57 1.57 0 01-1.45-.65 4.46 4.46 0 01-.39-2.21 6.28 6.28 0 01.27-2.18 1.54 1.54 0 011.58-1 1.59 1.59 0 011.46.65 4.54 4.54 0 01.38 2.21zm3.95-1.83a9.8 9.8 0 00-1.51 3.55q-.14.65-.22 1.27h-1.25a10.48 10.48 0 011.09-3.54 8.59 8.59 0 01.75-1.2h-2.48v-1h3.62z" transform="translate(-3.33 -2.2)"/></svg>